<svg version="1" xmlns="http://www.w3.org/2000/svg" width="682.667" height="682.667" viewBox="0 0 512.000000 512.000000"><path d="M235 .6c-56.3 5.3-106.1 24.3-149.7 57-16.4 12.3-25 20.9-25.9 25.7-1.5 8.4 3.6 16.5 11.7 18.7 6.2 1.7 10.6.1 18.7-6.9 38.4-33 81.9-53 132.2-60.8 16.2-2.5 51.8-2.4 68.5.1 47.9 7.2 90.7 26.5 127.9 57.5 12.3 10.3 16.3 12.1 22.8 10.2 7.9-2.4 12.8-10.5 11.4-18.8-.9-4.9-9.8-13.7-27-26.5C387.2 28.2 343.7 10.1 296.5 3 282.9 1 246.4-.4 235 .6z"/><path d="M224.7 64.5c-71.5 8.7-137.1 47.1-182 106.7-9.2 12.2-11 16-10.4 21.6 1.2 11.2 14.1 17.9 23.4 12.3 1.7-1.1 7.1-7.3 11.9-13.8 10.1-13.4 30-34.4 41.9-44 31.4-25.4 68.5-42.3 108.4-49.5 10.9-2 16-2.3 38.1-2.3 22.2 0 27.2.3 38.2 2.3 40.7 7.3 79 25 109.6 50.7 12.8 10.6 30.5 29.3 40.6 42.8 4.8 6.5 10.2 12.7 11.9 13.8 9.3 5.6 22.2-1.1 23.4-12.3.6-5.5-1-9-10.4-21.5C424.5 111.3 358.8 73 286 64.5c-15.2-1.8-46.3-1.8-61.3 0z"/><path d="M242.5 125.7c-42.3 3.4-77.9 16.9-110.9 42.2C58.3 223.9 29 326.1 61 414c7.2 20 25.1 51.7 34.8 61.9 8.9 9.4 23.7 6.2 27.3-5.9 1.7-5.8.4-9.8-5.9-18.6-12.7-17.2-20.6-32.5-27.3-52.3-13.2-39.7-13.2-79.6.1-119.3 9.3-27.9 22.9-49.9 43.9-70.8 16.1-16 27.8-24.6 45.6-33.4 15.5-7.6 24.2-10.8 39-14.1 77.7-17.5 155.1 20.7 192 95 8.3 16.7 13.2 30.3 16.5 45.1 4.8 21.9 6.4 48.7 3.5 59.7-5.5 21.1-22.4 34.8-43 34.8-12.7 0-21.9-3.8-30.8-12.8-9.8-9.8-13.7-20.2-13.7-36.8 0-29.4-7.8-50.8-25.3-69.2-11.9-12.5-27.8-21.5-44.1-25-10.4-2.2-27.3-1.9-37.1.7-25.6 6.6-44.7 23.2-57.1 49.4-7.2 15.4-8.8 23.2-8.9 43.6 0 15.8.3 18.6 2.8 28.4 8.3 32.9 27.4 64.4 56.3 92.8 12.8 12.6 20.4 18.8 33.6 27.5C279 505.1 296 512 306 512c4.8 0 11.6-3.6 14-7.4 2.8-4.7 2.7-12.9-.2-17.2-3-4.4-6.7-6.3-14-7.5-20.8-3.3-58.3-34.5-80.2-66.7-6.3-9.3-13.6-23.2-17.3-33.2-6.1-16.1-8.1-37.2-4.7-50.9 5.1-21.1 20.1-38.7 37.7-44.3 7.2-2.3 20.8-2.7 27.8-.8 18.1 4.9 33.8 20.5 39.4 39 1 3.6 1.9 12 2.5 24 .9 20.8 2.3 27 9.1 40.1 10 19.2 28 33.6 48.8 39 9.7 2.5 26.2 2.7 35.8.4 3.7-.9 11.1-3.7 16.3-6.3 8.2-4 10.8-5.9 19-14.2 10.2-10.2 14.8-17.1 18.7-27.8 5.2-14.2 6.4-29.3 4.3-52.7-8.1-88.3-64.3-162.5-143.9-190-22.7-7.8-53.3-11.7-76.6-9.8z"/><path d="M239.5 188.6c-34.9 5.1-61.7 18.5-86.1 42.8-22 22.1-35.1 46.5-42 78.6-2.6 12-2.7 43.9-.1 56 8.7 41 35.2 87.8 74.9 132.7 12.1 13.6 17.6 15.9 26.8 11 5.2-2.7 8-7.5 8-13.7 0-6-1.5-8.5-11-18.9-21.9-23.9-44.6-57.4-55.5-81.9-9.5-21.5-13.5-38.2-13.5-56 0-20.4 4.2-37.8 13.3-55.6 21.1-41.2 62-65.4 107.1-63.3 40.9 1.9 77.2 25.7 96.3 63.3 8.3 16.2 11.9 29.6 13.2 48.5.6 8.7 1.3 12.6 2.8 15.1 6 10.3 21 10.6 27.4.6 1.9-3.1 2-4.3 1.5-17.3-1.4-37.9-16.6-71.7-44.5-99.5-21.4-21.3-42-32.8-71.1-39.7-8.5-2-13.7-2.5-27.5-2.8-9.3-.2-18.3-.1-20 .1z"/><path d="M248.5 314.4c-3.7 1.6-8.3 6.8-9.1 10.3-1.2 4.7.5 25.6 3 36.3 4.6 20.2 12.6 38.4 24.5 56.1 23.7 35.2 57.1 58.5 90.3 62.9 10.3 1.4 15.3.3 19.7-4.1 5.9-5.8 6.5-14.9 1.4-20.9-3.6-4.3-6.7-5.6-15.3-6.4-22.2-2.1-45.1-16.5-63.5-40.1-16.7-21.4-26.6-46.7-28.3-72.6-1-13.8-2.5-17.3-9.2-20.7-5-2.5-9.1-2.7-13.5-.8z"/></svg>